<svg data-v-d3f97b9e="" xmlns="http://www.w3.org/2000/svg" viewBox="0 0 57.99479385415696 60"><!----><!----><!----><!----><g data-v-d3f97b9e="" id="c634fc41-ad05-4673-ae96-c3d3a46227db" transform="matrix(0.5999999542236363,0,0,0.5999999542236363,5.815794424560703,-0.03780002305606445)" stroke="none" fill="white"><path d="M86.022 46.796l-4.779-33.469c-.519-3.627-3.627-7.939-6.906-9.579 0 0-7.371-3.685-34.029-3.685-26.667 0-37.371 3.685-37.371 3.685-3.28 1.64-6.389 5.952-6.907 9.579l-4.779 33.469c-.519 3.627-.944 9.602-.944 13.268s1.346 9.343 2.978 12.622l.704 1.407c1.647 3.279 5.893 6.697 9.451 7.579l3.535.89v7.494L3.64 100.063h6.667l2.22-6.667h52.219l2.22 6.667h6.667L70.3 90.056v-7.494l3.534-.89c3.558-.882 7.812-4.3 9.451-7.579l.695-1.407c1.64-3.279 2.985-8.956 2.985-12.622s-.424-9.641-.943-13.268zm-80.719 26.6a5 5 0 0 1-4.996-5.004 5 5 0 0 1 4.996-5.004 5.007 5.007 0 0 1 5.004 5.004 5.007 5.007 0 0 1-5.004 5.004zm37.224-22.667a2.673 2.673 0 0 1-2.669 2.664H2.604c-1.47 0-2.521-1.187-2.344-2.645l4.315-34.706c.186-1.454 1.532-2.645 2.993-2.645h32.289a2.678 2.678 0 0 1 2.669 2.664v34.668h.001zm29.442 22.667a5.007 5.007 0 0 1-5.004-5.004 5.007 5.007 0 0 1 5.004-5.004 5 5 0 0 1 4.996 5.004 4.999 4.999 0 0 1-4.996 5.004z"></path></g><!----></svg>